<?xml version="1.0" encoding="UTF-8"?>
<!DOCTYPE svg PUBLIC "-//W3C//DTD SVG 1.1//EN" "http://www.w3.org/Graphics/SVG/1.1/DTD/svg11.dtd">
<!-- Creator: CorelDRAW 2017 -->
<svg xmlns="http://www.w3.org/2000/svg" xml:space="preserve" width="100%" height="100%" version="1.1" style="shape-rendering:geometricPrecision; text-rendering:geometricPrecision; image-rendering:optimizeQuality; fill-rule:evenodd; clip-rule:evenodd"
viewBox="0 0 2027.28 2071.24"
 xmlns:xlink="http://www.w3.org/1999/xlink">
 <defs>
  <style type="text/css">
   <![CDATA[
    .fil2 {fill:#FEFEFE}
    .fil0 {fill:#E52137}
    .fil1 {fill:#60C5E5}
   ]]>
  </style>
 </defs>
 <g id="Layer_x0020_1">
  <metadata id="CorelCorpID_0Corel-Layer"/>
  <g id="_592793616">
   <g>
    <path class="fil0" d="M268.5 1489.9l-49.25 3.88c25.84,-43.25 30.98,-141.96 40.06,-191.41l23.45 -1.85 -14.26 189.38zm-117.67 192.89c8.69,-0.69 15.03,-4.58 18.89,-10.24 7.79,-11.41 7.64,-51.02 12.21,-75.89 25.85,-2.04 44.25,-1.15 68.12,-3.05 24.23,-1.93 48.46,-3.83 72.69,-5.74 -2.38,5.68 -3.52,24.14 -3.1,32.78 0.54,11.13 21.97,27.93 29.79,32.57 14.38,8.53 25.26,11.69 38.6,12.23 38.04,1.5 25.36,-17.75 29.33,-48.81 3.5,-27.41 5.64,-72.6 10,-99.96 1.02,-20.23 3.21,-36.69 -25.95,-35.07 -5.64,0.32 -13.82,1.2 -27.27,2.26 -1.96,-39.93 5.14,-99.82 8.56,-138.51l7.14 -80.66c4.12,-39.99 9.25,-45.55 -35.65,-49.1 -26.94,-2.13 -172.94,1.87 -185.93,18.94 -9.14,12.01 -2.67,45.56 -5.63,74.93 -6.27,62.25 -11.13,111.73 -32.42,171.42 -3.79,10.63 -8.7,17.31 -21.28,19.25 -36.22,5.56 -29.21,32.89 -30.72,93.1 -1.02,40.47 -5.78,45.47 44.18,77.45 6.37,4.08 18.89,12.85 28.45,12.09z"/>
    <path class="fil0" d="M793.76 1406.62c5.41,-3.61 13.7,-6.75 22.74,-6.55 17.5,0.38 14.52,25.99 13.21,39.17 -2.45,24.64 -13.4,41.14 -23.21,22.81 -7.37,-13.75 -11.97,-39.93 -12.73,-55.43zm164.58 -245.45c1.86,40.13 -4.9,78.98 -37.8,107.03 -38.01,32.41 -121.09,37.26 -122.59,79.99 14.45,-4.52 30.71,-18.73 67.69,-12.34 16.92,2.92 60.03,13.11 71.02,25.45 26.99,30.34 1.61,111.96 -22.04,141.6 -16.47,20.66 -39.09,36.64 -67.41,43.13 -27.31,6.26 -52.4,2.52 -73.82,-8.5 -46.67,-23.99 -64.21,-69.34 -68.6,-119.17 -4.51,-51.18 13.09,-117.07 31.51,-159.09 27.07,-61.76 103.33,-66.27 155.5,-91.38 6.25,-3.02 21.27,-11.64 25.47,-15.62 3.23,-3.05 6.69,-7.42 10.3,-11.32 19.83,-21.36 29.93,1.92 30.78,20.2z"/>
    <path class="fil0" d="M1074.22 1458.87c-2.08,-26.63 3.07,-70.47 25.85,-89.13 5,-4.11 11.14,-6.75 18.85,-7.36 22.09,36.17 -13.52,93.34 -44.71,96.49zm-17.12 198.91c-18,-0.81 -43.3,-8.02 -48.98,-10.06 -30.83,-11.07 -33.93,-20.23 -35.07,-43.74 -2.01,-41.03 -0.38,-76.55 1.18,-117.68l6.34 -166.21c2.3,-28.17 3.38,-31.15 30.85,-32.66 92.26,-5.08 64.57,15.26 66.29,50.32 17.12,-13.09 31.26,-51.43 47.82,-55.81 22.65,-5.98 57.88,4.96 72.35,21.29 15.62,17.62 41.84,149.28 -43.95,195.89 -56.14,30.5 -65.58,7.5 -80.12,-0.7 0.75,15.48 2.71,78.94 2.48,120.08 -0.17,33.14 7.11,37.21 -19.2,39.28z"/>
    <path class="fil0" d="M1593.53 1343.52c0.36,-6.01 0.18,-21.86 7.72,-30.3 12.27,-13.74 23.1,-0.35 18.75,13.61 -2.83,9.04 -4.55,13.24 -8.07,15.39 -5.5,3.35 -12.55,2.53 -18.4,1.31zm91.95 -0.08c-22.01,28.72 -58.36,41.79 -90.59,27.86 0.34,6.91 1.09,12.25 2.22,16.65 5.65,21.92 14.03,29.41 34.03,18.19 24.59,-13.79 49.08,-46.75 68.12,-12.58 12.97,23.26 17.81,40.03 -0.77,60.86 -16.8,18.82 -49.12,33.44 -76.61,35.6 -33.75,2.66 -59,1.22 -80,-10.33 -37.75,-20.75 -52.98,-61.14 -54.98,-102.2 -1.04,-21.18 3.55,-41.64 11.78,-60.55 19.38,-44.52 51.71,-77.05 100.35,-86.41 32.85,-6.33 73.38,-4.71 93.71,15.59 24.28,24.24 11.07,73.37 -7.27,97.31z"/>
    <path class="fil0" d="M563.12 1501.52c-27.24,2.15 -9.2,-138.77 9,-98.01 8.93,19.98 -0.06,97.3 -9,98.01zm-114.49 -30.47c1.61,32.82 11.07,67.74 39.46,85.23 5.47,3.36 8.8,6.35 16.14,8.77 23.09,7.64 52.16,9.05 78.82,6.95 36.9,-2.91 61.53,-29.55 76.61,-61.46 16.72,-35.41 27.01,-103.45 5.52,-137.46 -6.85,-10.84 -16.06,-20.27 -25.52,-28.13 -21.82,-18.14 -96.56,-33.58 -139.82,-0.24 -31.88,24.57 -53.34,82.61 -51.2,126.34z"/>
    <path class="fil0" d="M1351.05 1439.36c-27.24,2.15 -9.2,-138.77 9,-98.01 8.92,19.99 -0.06,97.3 -9,98.01zm-114.5 -30.48c1.61,32.83 11.07,67.75 39.47,85.23 27.68,17.05 60.46,18.45 94.96,15.72 32.39,-2.55 55.33,-23.4 70.65,-50.05 31.56,-54.91 37.12,-134.47 -14.05,-177.01 -21.82,-18.14 -96.56,-33.58 -139.82,-0.23 -31.88,24.57 -53.35,82.6 -51.21,126.34z"/>
   </g>
   <g>
    <path class="fil0" d="M1182.59 1842.07l-32.83 2.59c10.38,-22.22 21.91,-56.35 20.35,-88.19l15.32 -0.62c0.98,20.01 -3.63,70.14 -2.84,86.22zm-117.13 11.57c-36.46,2.88 -30.66,7.11 -33.87,34.95l-6.33 58.93c-0.75,21.22 0.05,22.26 25.41,37.48 37.36,22.42 61.43,25.94 64.82,-21.5 1.01,-14.23 2.83,-26.99 5.19,-39.84l91.46 -7.22c1.62,33.1 -0.57,44 35.02,58.46 75.29,30.59 58.21,-11.6 61.45,-63.54 0.75,-12.16 1.8,-21.84 2.58,-31.56 1.81,-22.28 8.88,-49.23 -20.86,-46.37 -2.92,0.28 -6.63,0.67 -11.58,1.06 -0.6,-22.41 6.22,-86.1 9.62,-126.22 2.01,-23.85 5.83,-35.13 -25.16,-37.09 -35.42,-0.59 -101.95,-2.4 -135.14,3.81 -14.62,2.74 -26.92,7.5 -30.64,15.69 -4.45,9.81 -5.76,43.25 -6.68,58.5 -0.64,10.57 -2.16,24.24 -4.52,37.94 -1.96,11.38 -13.23,58.57 -20.75,66.53z"/>
    <path class="fil0" d="M1530.29 1877.38c-18.28,30.61 -39.89,56.05 -6.01,82.45 8.43,6.57 31.76,18.14 43.66,10.05 0.45,-0.31 51.99,-75.35 63.64,-91.19 6.13,-9.29 8.75,-7.84 11.39,-21.29 3.02,-15.32 -9.24,-52.98 -32.01,-55.75 -6.35,-0.77 -24.94,1.61 -32.49,2.2 -2.52,-51.49 5.17,-79.95 8.15,-121.64 1.36,-18.95 -0.43,-24.61 -32,-29.93 -20.61,-3.47 -35.46,-4.12 -61.37,-2.07 -4.02,6.73 -5.83,6.35 -8.51,14.79l-6.3 65.47c-1.1,14.62 -1.09,22.15 -2.51,28.03 -3.07,12.7 -20.37,33.82 -34.49,35.24 -1.11,-22.68 0.45,-37.02 2.84,-57.38 3.9,-33.23 13.77,-63.47 -7.5,-71.72 -14.43,-5.59 -38.92,-8.35 -60.29,-8.71 -23.14,-0.39 -25.94,-1.11 -30.26,24.59 -1.25,7.41 -1.92,15.53 -3.44,25.54 -2.5,16.4 -5.59,39.39 -6.37,56.55l-3.9 87.7c-2.2,18.4 8.44,21.27 16.9,26.99 18.77,12.71 62,32.92 83.84,17.99 9.84,-6.73 28.98,-45.18 37.11,-58.74 7.63,-12.75 6.57,-15.55 14.64,-18.35 6.25,11.24 4.19,32.47 8.25,46.92 5.97,21.26 19.1,15.15 37.02,12.25z"/>
    <path class="fil0" d="M887.39 1872.33c-0.71,-20.44 0.73,-38.73 9.44,-64.82 18.75,-56.16 62.92,-23.83 33.95,27.05 -9.15,16.06 -23.48,35.76 -43.39,37.77zm-17.16 198.91c-18,-0.82 -43.25,-8.03 -48.94,-10.07 -30.84,-11.02 -33.93,-20.31 -35.08,-43.73l-0.06 -44.49c-0.11,-83.19 3.29,-156.08 7.61,-239.38 2.31,-27.8 3.06,-31.14 30.36,-32.66 92.79,-5.18 65.02,15.14 66.74,50.3 9.65,-7.39 15.4,-18.17 22.76,-29.05 5.62,-8.31 15.08,-24.12 25.03,-26.74 22.62,-5.96 57.97,4.9 72.38,21.28 15.76,17.9 41.72,149.31 -43.95,195.88 -56.13,30.51 -65.57,7.51 -80.12,-0.7 0.76,15.57 2.73,79.63 2.48,120.76 -0.2,32.87 6.91,36.54 -19.23,38.61z"/>
    <path class="fil0" d="M1749.06 1729.97c0.11,-6.25 1.36,-12.99 3.85,-21.04 6.63,-21.43 27.3,-19.91 22.52,1.78 -4.49,20.34 -9.02,17.89 -26.37,19.26zm92.27 0.14c-20.15,28.4 -61.51,40.36 -90.9,27.65 0.34,6.98 1.11,12.36 2.26,16.79 9.86,37.83 34.22,21.5 55.83,2.19 6.46,-5.77 13.3,-10.66 24.67,-11.56 15.29,-1.21 51.3,41.61 20.86,75.71 -40.96,45.88 -131.12,49.94 -174.93,11.44 -26.15,-22.97 -35,-54.46 -36.66,-88.36 -0.88,-17.88 2.27,-35.3 8.24,-51.7 11.81,-32.44 34.84,-63.83 65.18,-81.98 14.45,-8.63 35.61,-14.11 57.05,-15.77 21.8,-1.7 43.9,0.54 59.55,7.37 43.14,18.83 31.14,76.83 8.86,108.24z"/>
    <path class="fil0" d="M639.87 1817.49c2.71,-6.44 1.93,-35.01 17.06,-36.21 11.8,-0.93 11.52,10.38 7.79,21.46 -5.74,17.08 -7.75,13.41 -24.85,14.75zm83.88 -107.79c16.22,7.86 27.22,21.19 28.19,40.84 3.42,69.8 -58.97,117.11 -110.71,94.73 0.53,10.76 6.01,41.36 20.8,40.2 29.74,-2.35 60.28,-59.32 83.57,-17.92 20.1,35.74 14.2,52.59 -20.39,77.09 -35.39,25.06 -106.59,28.83 -142.47,5.59 -30.1,-19.51 -47.39,-55.57 -49.5,-98.77 -2.43,-49.45 23.87,-96.95 64.2,-124.93 34.13,-23.67 88.07,-35.37 126.31,-16.84z"/>
    <path class="fil0" d="M302.3 1927.05c17.84,32.33 43.51,46.06 74.05,50.52 39.53,5.78 73.93,1.64 107.15,-23.31 15.83,-11.88 27.61,-26.22 27.02,-38.25 -0.49,-10.15 -12.19,-34.3 -16.98,-39.6 -22.8,-25.22 -52,24.12 -75.5,25.97 -23.41,1.85 -24.55,-20.54 -25.49,-39.82 -0.7,-14.28 0.62,-26.87 2.23,-37.97 5.52,-37.9 23.22,-25.47 23.07,-22.14l-1.23 32.59c39.08,21.22 61.29,19.44 80.37,-19.43 4.64,-9.45 13.68,-40.55 13.07,-52.96 -2.75,-56.12 -118.17,-46.08 -152.79,-25.98 -19.7,11.44 -39.47,32.74 -49.16,52.73 -19.35,39.95 -27.98,97.56 -5.82,137.65z"/>
   </g>
   <path class="fil1" d="M1970.11 1430.22c0,0 13.14,-43.99 -21.01,-52.99 -34.15,-9.01 -44.07,23.73 -50.87,64.47 -6.8,40.74 -7.14,80.96 -7.14,80.96 0,0 69.27,-8.27 108.91,-25.61 34.87,-15.26 34.71,-50.25 8.69,-63.76 -8.78,-4.56 -21.22,-5.23 -38.58,-3.07z"/>
   <path class="fil0" d="M1885.65 1140.27c0,0 -9.4,-51.38 -45.1,-61 -35.71,-9.6 -78.91,2.91 -70.73,79.47 8.18,76.56 61.76,159.17 61.76,159.17 0,0 130.3,-51.59 157.8,-108.17 27.51,-56.58 1.74,-93.41 -40.58,-96.39 -42.32,-2.98 -63.16,26.92 -63.16,26.92z"/>
   <path class="fil1" d="M190.65 2058.33c0,0 33.78,-143.57 13.2,-195.97 -19.7,-50.14 -86.11,-39.59 -95.52,-3.6 -2.79,10.66 -1.86,33.76 -0.73,41.82 0.68,4.82 -63.59,-35.09 -93.12,-1.39 -29.53,33.7 -14.25,97.64 48.99,123 63.24,25.37 127.17,36.14 127.17,36.14z"/>
   <g>
    <path class="fil0" d="M998.28 341.42c70.31,-103.04 137.49,-162.09 266.33,-158.6 98.17,2.67 172.44,39.32 215.16,143.87 45.5,111.34 25.37,213.19 -40.23,324.31 -26.85,45.49 -59.92,87.22 -104.18,130.32 -53.42,52.02 -160.79,150.55 -249.46,218.89 -99.87,76.96 -56.18,92.53 -127.95,27.12 -30.3,-27.61 -81.67,-63.57 -159.67,-128.85 -106.48,-89.12 -244.93,-182.81 -290.87,-326.54 -24.22,-75.79 -29.84,-139.12 7.91,-229.03 69.92,-166.53 295,-178.88 391.97,-83.3 16.62,16.38 50.05,37.04 84.49,78.78 3.76,4.55 6.49,3.03 6.49,3.03z"/>
    <path class="fil0" d="M691.02 73.45c-41.44,-37.3 -190.16,-139.11 -278.27,-10.02 -88.12,129.09 -99.45,178.18 -136.75,211.33 -37.3,33.15 -53.87,49.73 29.01,60.08 82.87,10.36 190.61,-74.58 221.69,-130.52 31.08,-55.94 109.81,-60.09 153.32,-51.8 43.51,8.29 87.65,-23.14 11,-79.08z"/>
    <path class="fil0" d="M1269.39 118.13c41.44,-34.74 51.63,-51.45 155.54,-85.41 103.91,-33.95 177.08,14.19 220.59,80.49 43.51,66.3 97.38,163.68 20.72,145.03 -76.66,-18.64 -214.33,-124.16 -310.12,-102.96 -95.79,21.2 -103.13,-18.35 -86.73,-37.15z"/>
    <path class="fil2" d="M1220.61 449.9c0,0 -40.93,-91.65 -90.08,-49.84 -49.15,41.81 -2.36,127.88 21.24,184.36 23.61,56.49 61.67,97 137.61,-14.82 75.94,-111.84 67.16,-134.74 44.21,-154.9 -47.39,-41.64 -104.61,18.28 -112.98,35.19z"/>
    <path class="fil2" d="M703.69 498.08c-14.67,29.34 -1.84,88.04 44.02,104.54 45.85,16.51 130.22,-47.69 106.37,-113.71 -23.84,-66.03 -115.54,-64.19 -150.39,9.17z"/>
    <path class="fil2" d="M1010.54 887.54c0,0 -36.64,-30.68 -67.05,-6.27 -30.4,24.41 6.26,59.85 27.25,80.65 20.99,20.8 53.37,27.63 96.41,-30.14 43.04,-57.78 35.07,-66.32 17.56,-71.77 -36.14,-11.27 -69.82,19.21 -74.17,27.53z"/>
    <path class="fil0" d="M745.34 525.44c1.81,14.39 21.29,33.77 42.64,29.81 21.36,-3.95 37.04,-47.06 11.6,-66.77 -25.44,-19.72 -59.45,1.39 -54.24,36.95z"/>
    <path class="fil0" d="M1178.87 525.98c1.89,15 17.57,29.03 42.9,28 25.33,-1.04 40.14,-45.97 13.63,-66.51 -26.52,-20.55 -61.96,1.45 -56.53,38.51z"/>
   </g>
  </g>
 </g>
</svg>
