<?xml version="1.0" encoding="UTF-8"?>
<!DOCTYPE svg PUBLIC "-//W3C//DTD SVG 1.1//EN" "http://www.w3.org/Graphics/SVG/1.1/DTD/svg11.dtd">
<!-- Creator: CorelDRAW 2017 -->
<svg xmlns="http://www.w3.org/2000/svg" xml:space="preserve" width="100%" height="100%" version="1.1" style="shape-rendering:geometricPrecision; text-rendering:geometricPrecision; image-rendering:optimizeQuality; fill-rule:evenodd; clip-rule:evenodd"
viewBox="0 0 2846.76 2817.95"
 xmlns:xlink="http://www.w3.org/1999/xlink">
 <defs>
  <style type="text/css">
   <![CDATA[
    .fil1 {fill:black}
    .fil0 {fill:black;fill-rule:nonzero}
   ]]>
  </style>
 </defs>
 <g id="Layer_x0020_1">
  <metadata id="CorelCorpID_0Corel-Layer"/>
  <g id="_934485504">
   <g>
    <g>
     <polygon class="fil0" points="96.36,1859.58 447.59,1868.18 145.69,1985.98 172.72,2055.26 526.71,1917.13 483.69,1806.9 132.27,1797.77 434.16,1679.97 407.32,1611.2 53.35,1749.33 "/>
     <path class="fil0" d="M176.39 1429.43c117.52,13.82 202.64,-40.67 216.02,-154.42 11.23,-95.43 -35.14,-156.62 -116.97,-176.64l-13.34 71.67c42.84,12.14 74.87,46.51 68.85,97.73 -7.61,64.69 -68.59,95.24 -145.68,86.16 -69.56,-8.17 -130.28,-44.82 -122.29,-112.76 5.46,-46.36 38.62,-77.43 84.26,-79.73l2.03 -73c-79.57,2.69 -137.04,54.4 -147.77,145.51 -12.99,110.52 59.51,181.9 174.88,195.48z"/>
     <polygon class="fil0" points="175.85,830.19 237.31,729.68 508.23,895.33 547.87,830.5 276.95,664.85 338.12,564.83 284.85,532.26 122.6,797.63 "/>
     <path class="fil0" d="M596.57 477.36c64.58,99.82 160.07,130.48 258.51,66.79 98.43,-63.68 109.61,-163.36 45.04,-263.17 -64.58,-99.82 -160.08,-130.5 -258.52,-66.8 -98.43,63.68 -109.61,163.36 -45.03,263.18zm63.81 -41.28c-42.47,-65.63 -41.23,-133.68 14.85,-169.94 56.96,-36.86 118.62,-9.51 161.08,56.12 42.46,65.62 42.13,133.07 -14.85,169.94 -56.05,36.25 -118.62,9.51 -161.08,-56.12z"/>
     <path class="fil0" d="M1169.53 391.98l75.78 -5.75 -10.8 -142.35 90.4 -6.85c72.52,-5.49 132.59,-38.92 125.94,-126.6 -6.64,-87.69 -75.15,-115.17 -146.06,-109.78l-164 12.43 28.74 378.89zm60.54 -206.56l-8.78 -115.83 79.02 -5.99c43.31,-3.29 71.67,11.98 74.76,52.58 3.09,40.59 -22.67,59.97 -65.97,63.25l-79.03 5.99z"/>
     <polygon class="fil0" points="1960.76,110.08 1720.69,366.59 1833.56,62.82 1763.86,36.91 1631.5,393.1 1742.43,434.32 1983.03,178 1870.14,481.77 1939.34,507.49 2071.69,151.31 "/>
     <polygon class="fil0" points="2524.24,548.22 2186.45,644.82 2439.44,442.29 2392.96,384.24 2096.32,621.71 2170.28,714.09 2508.42,617.92 2255.43,820.45 2301.58,878.07 2598.2,640.59 "/>
    </g>
    <polygon class="fil0" points="1055.01,2360.21 860.04,2644.31 903.79,2302.55 779.51,2255.17 644.15,2610.22 712.12,2636.13 831.62,2322.69 795.29,2667.85 891.74,2704.62 1094.64,2422.38 974.93,2736.33 1042.47,2762.09 1178.35,2407.23 "/>
    <path class="fil0" d="M1616.75 2804.81l77.54 -3.55 -141.56 -373.9 -116.58 5.36 -106.26 385.24 74.85 -3.43 23.6 -89.65 156.72 -7.18 31.69 87.12zm-121.23 -333.52l68.44 189.21 -119.84 5.48 51.4 -194.7z"/>
    <path class="fil0" d="M1972.68 2724.44l67.56 -34.75 -65.05 -128.62 80.65 -41.43c64.68,-33.25 107.07,-87.36 66.88,-165.6 -40.19,-78.21 -114,-76.9 -177.25,-44.42l-146.27 75.16 173.48 339.65zm-24.28 -215.52l-53.09 -103.32 70.5 -36.24c38.62,-19.84 70.69,-16.8 89.3,19.42 18.6,36.22 2.39,64.07 -36.23,83.92l-70.49 36.22z"/>
    <polygon class="fil0" points="2218.13,2200.86 2290.65,2099.97 2551.4,2287.28 2598.21,2222.22 2337.44,2034.88 2409.6,1934.45 2356.13,1896.02 2164.66,2162.43 "/>
    <g>
     <path class="fil0" d="M2745.62 1682.75l-14.74 66.78 -110.78 -24.44 14.74 -66.78c9.34,-42.42 32.17,-65.17 70.86,-56.64 38.17,8.41 49.28,38.66 39.92,81.08zm-168.17 -46.56l-16.71 75.8 -139.94 -30.87 -16.37 74.22 371.06 81.85 33.1 -150c15.32,-69.44 -1.69,-141 -86.5,-159.72 -84.28,-18.6 -128.96,37.7 -144.63,108.74z"/>
     <polygon class="fil0" points="2459.79,1398.35 2835.78,1453.19 2846.76,1377.98 2470.75,1323.15 "/>
    </g>
   </g>
   <path class="fil1" d="M1176.84 1295.47c66.84,-15 120.91,17.98 170.5,55.48 165.36,-124.43 141.95,-121.35 307.34,-245.77 -59.33,-101.43 15.54,-233.8 116.34,-235.96 98.68,-2.1 178.23,50.7 167.92,186.03 26.51,-1.37 63.55,0.44 103.24,21.47 105.71,55.96 87.11,204.83 -21.37,247.41 -53.96,21.18 -135.22,-5.6 -177.53,-31.28 -141.9,106.3 -149.46,116.2 -328.6,246.42 30.2,117.1 -69.11,246.38 -182.74,223.08 -62.07,-12.73 -125.2,-74.9 -109.99,-200.46 -75.3,0.32 -167.38,-63.11 -161.58,-144.9 4.59,-64.75 56.61,-108.05 116.47,-121.51z"/>
  </g>
 </g>
</svg>
