<svg xmlns="http://www.w3.org/2000/svg" viewBox="0 0 2846.76 2817.95" shape-rendering="geometricPrecision" text-rendering="geometricPrecision" image-rendering="optimizeQuality" fill-rule="evenodd" clip-rule="evenodd"><defs><style>.fil0{fill:#000;fill-rule:nonzero}</style></defs><g id="Layer_x0020_1"><g id="_934485504"><path class="fil0" d="M96.36 1859.58l351.23 8.6-301.9 117.8 27.03 69.28 353.99-138.13-43.02-110.23-351.42-9.13 301.89-117.8-26.84-68.77-353.97 138.13zM176.39 1429.43c117.52 13.82 202.64-40.67 216.02-154.42 11.23-95.43-35.14-156.62-116.97-176.64l-13.34 71.67c42.84 12.14 74.87 46.51 68.85 97.73-7.61 64.69-68.59 95.24-145.68 86.16-69.56-8.17-130.28-44.82-122.29-112.76 5.46-46.36 38.62-77.43 84.26-79.73l2.03-73c-79.57 2.69-137.04 54.4-147.77 145.51-12.99 110.52 59.51 181.9 174.88 195.48zM175.85 830.19l61.46-100.51 270.92 165.65 39.64-64.83-270.92-165.65 61.17-100.02-53.27-32.57L122.6 797.63zM596.57 477.36c64.58 99.82 160.07 130.48 258.51 66.79 98.43-63.68 109.61-163.36 45.04-263.17-64.58-99.82-160.08-130.5-258.52-66.8-98.43 63.68-109.61 163.36-45.03 263.18zm63.81-41.28c-42.47-65.63-41.23-133.68 14.85-169.94 56.96-36.86 118.62-9.51 161.08 56.12 42.46 65.62 42.13 133.07-14.85 169.94-56.05 36.25-118.62 9.51-161.08-56.12zM1169.53 391.98l75.78-5.75-10.8-142.35 90.4-6.85c72.52-5.49 132.59-38.92 125.94-126.6C1444.21 22.74 1375.7-4.74 1304.79.65l-164 12.43 28.74 378.89zm60.54-206.56l-8.78-115.83 79.02-5.99c43.31-3.29 71.67 11.98 74.76 52.58 3.09 40.59-22.67 59.97-65.97 63.25l-79.03 5.99zM1960.76 110.08l-240.07 256.51 112.87-303.77-69.7-25.91L1631.5 393.1l110.93 41.22L1983.03 178l-112.89 303.77 69.2 25.72 132.35-356.18zM2524.24 548.22l-337.79 96.6 252.99-202.53-46.48-58.05-296.64 237.47 73.96 92.38 338.14-96.17-252.99 202.53 46.15 57.62 296.62-237.48zM1055.01 2360.21l-194.97 284.1 43.75-341.76-124.28-47.38-135.36 355.05 67.97 25.91 119.5-313.44-36.33 345.16 96.45 36.77 202.9-282.24-119.71 313.95 67.54 25.76 135.88-354.86zM1616.75 2804.81l77.54-3.55-141.56-373.9-116.58 5.36-106.26 385.24 74.85-3.43 23.6-89.65 156.72-7.18 31.69 87.12zm-121.23-333.52l68.44 189.21-119.84 5.48 51.4-194.7zM1972.68 2724.44l67.56-34.75-65.05-128.62 80.65-41.43c64.68-33.25 107.07-87.36 66.88-165.6-40.19-78.21-114-76.9-177.25-44.42l-146.27 75.16 173.48 339.65zm-24.28-215.52l-53.09-103.32 70.5-36.24c38.62-19.84 70.69-16.8 89.3 19.42 18.6 36.22 2.39 64.07-36.23 83.92l-70.49 36.22zM2218.13 2200.86l72.52-100.89 260.75 187.31 46.81-65.06-260.77-187.34 72.16-100.43-53.47-38.43-191.47 266.41z"/><g><path class="fil0" d="M2745.62 1682.75l-14.74 66.78-110.78-24.44 14.74-66.78c9.34-42.42 32.17-65.17 70.86-56.64 38.17 8.41 49.28 38.66 39.92 81.08zm-168.17-46.56l-16.71 75.8-139.94-30.87-16.37 74.22 371.06 81.85 33.1-150c15.32-69.44-1.69-141-86.5-159.72-84.28-18.6-128.96 37.7-144.63 108.74zM2459.79 1398.35l375.99 54.84 10.98-75.21-376.01-54.83z"/></g><path d="M1176.84 1295.47c66.84-15 120.91 17.98 170.5 55.48 165.36-124.43 141.95-121.35 307.34-245.77-59.33-101.43 15.54-233.8 116.34-235.96 98.68-2.1 178.23 50.7 167.92 186.03 26.51-1.37 63.55.44 103.24 21.47 105.71 55.96 87.11 204.83-21.37 247.41-53.96 21.18-135.22-5.6-177.53-31.28-141.9 106.3-149.46 116.2-328.6 246.42 30.2 117.1-69.11 246.38-182.74 223.08-62.07-12.73-125.2-74.9-109.99-200.46-75.3.32-167.38-63.11-161.58-144.9 4.59-64.75 56.61-108.05 116.47-121.51z"/></g></g></svg>