<?xml version="1.0" encoding="UTF-8"?>
<!DOCTYPE svg PUBLIC "-//W3C//DTD SVG 1.1//EN" "http://www.w3.org/Graphics/SVG/1.1/DTD/svg11.dtd">
<!-- Creator: CorelDRAW 2017 -->
<svg xmlns="http://www.w3.org/2000/svg" xml:space="preserve" width="100%" height="100%" version="1.1" style="shape-rendering:geometricPrecision; text-rendering:geometricPrecision; image-rendering:optimizeQuality; fill-rule:evenodd; clip-rule:evenodd"
viewBox="0 0 4968.77 5076.5"
 xmlns:xlink="http://www.w3.org/1999/xlink">
 <defs>
  <style type="text/css">
   <![CDATA[
    .fil0 {fill:black}
   ]]>
  </style>
 </defs>
 <g id="Layer_x0020_1">
  <metadata id="CorelCorpID_0Corel-Layer"/>
  <path class="fil0" d="M2446.75 836.81c172.32,-252.57 336.98,-397.3 652.76,-388.71 240.58,6.54 422.63,96.36 527.31,352.63 111.52,272.88 62.19,522.48 -98.58,794.87 -65.82,111.44 -146.87,213.74 -255.35,319.38 -130.91,127.48 -394.07,368.98 -611.41,536.46 -244.76,188.61 -137.7,226.81 -313.59,66.5 -74.24,-67.7 -200.16,-155.82 -391.32,-315.84 -260.97,-218.39 -600.31,-448.03 -712.91,-800.3 -59.36,-185.75 -73.15,-340.97 19.39,-561.35 171.36,-408.14 723.04,-438.42 960.68,-204.15 40.74,40.14 122.68,90.77 207.09,193.1 9.22,11.12 15.93,7.42 15.93,7.42zm-753.1 -656.78c-101.58,-91.41 -466.04,-340.94 -682.04,-24.53 -215.96,316.39 -243.73,436.69 -335.13,517.96 -91.41,81.22 -132.05,121.86 71.08,147.26 203.13,25.37 467.17,-182.82 543.35,-319.94 76.18,-137.09 269.14,-147.23 375.78,-126.95 106.63,20.31 214.82,-56.68 26.96,-193.8zm1417.55 109.53c101.58,-85.15 126.53,-126.11 381.21,-209.36 254.68,-83.21 434.04,34.77 540.67,197.28 106.64,162.49 238.69,401.17 50.77,355.49 -187.87,-45.73 -525.29,-304.32 -760.08,-252.35 -234.79,51.97 -252.79,-45.01 -212.57,-91.05zm-119.53 813.16c0,0 -100.32,-224.65 -220.8,-122.19 -120.49,102.48 -5.79,313.42 52.08,451.88 57.84,138.44 151.13,237.73 337.26,-36.32 186.14,-274.12 164.59,-330.22 108.34,-379.66 -116.15,-102.03 -256.37,44.81 -276.87,86.29zm-1266.96 118.09c-35.96,71.91 -4.49,215.75 107.88,256.2 112.39,40.46 319.17,-116.88 260.72,-278.7 -58.45,-161.83 -283.21,-157.31 -368.61,22.5zm752.07 954.5c0,0 -89.81,-75.2 -164.33,-15.34 -74.52,59.83 15.37,146.7 66.78,197.66 51.44,50.98 130.83,67.73 236.3,-73.88 105.48,-141.63 85.94,-162.54 43.04,-175.89 -88.58,-27.64 -171.11,47.09 -181.8,67.45zm-649.99 -887.47c4.43,35.26 52.16,82.75 104.48,73.07 52.37,-9.69 90.8,-115.34 28.45,-163.67 -62.36,-48.29 -145.71,3.43 -132.93,90.6zm1062.56 1.34c4.63,36.75 43.07,71.16 105.15,68.62 62.08,-2.53 98.37,-112.67 33.38,-163.02 -64.98,-50.36 -151.86,3.57 -138.54,94.41zm9.11 3225.63l-80.46 6.37c25.45,-54.45 53.71,-138.09 49.86,-216.13l37.56 -1.52c2.41,49.04 -8.87,171.89 -6.96,211.28zm-287.09 28.38c-89.36,7.03 -75.12,17.42 -82.99,85.65l-15.51 144.44c-1.85,51.97 0.11,54.56 62.25,91.83 91.58,54.98 150.6,63.57 158.86,-52.68 2.52,-34.87 6.96,-66.18 12.76,-97.65l224.11 -17.67c4.01,81.13 -1.37,107.84 85.84,143.27 184.54,74.95 142.71,-28.43 150.62,-155.74 1.85,-29.83 4.39,-53.54 6.34,-77.34 4.41,-54.63 21.75,-120.66 -51.13,-113.68 -7.17,0.71 -16.26,1.66 -28.37,2.62 -1.49,-54.92 15.23,-211.02 23.57,-309.35 4.91,-58.45 14.3,-86.1 -61.71,-90.91 -86.81,-1.44 -249.84,-5.9 -331.22,9.33 -35.82,6.71 -65.99,18.37 -75.08,38.45 -10.92,24.05 -14.13,106.04 -16.4,143.38 -1.55,25.9 -5.29,59.42 -11.06,92.99 -4.81,27.89 -32.44,143.57 -50.88,163.07zm1139.3 58.2c-44.81,75.01 -97.78,137.37 -14.74,202.11 20.67,16.1 77.84,44.44 106.98,24.63 1.13,-0.78 127.45,-184.7 156,-223.52 15.05,-22.76 21.44,-19.22 27.92,-52.19 7.41,-37.56 -22.65,-129.86 -78.44,-136.64 -15.59,-1.86 -61.13,3.96 -79.64,5.4 -6.2,-126.21 12.69,-195.96 20,-298.14 3.32,-46.43 -1.07,-60.31 -78.44,-73.35 -50.5,-8.51 -86.89,-10.06 -150.41,-5.05 -9.83,16.46 -14.27,15.54 -20.85,36.21l-15.43 160.49c-2.69,35.85 -2.69,54.27 -6.18,68.72 -7.53,31.12 -49.94,82.85 -84.52,86.35 -2.73,-55.62 1.09,-90.73 6.96,-140.66 9.58,-81.44 33.77,-155.54 -18.37,-175.79 -35.37,-13.71 -95.4,-20.45 -147.77,-21.33 -56.74,-0.96 -63.6,-2.72 -74.16,60.25 -3.07,18.2 -4.7,38.09 -8.45,62.61 -6.12,40.22 -13.71,96.57 -15.57,138.61l-9.58 214.96c-5.4,45.09 20.7,52.13 41.41,66.15 46.01,31.16 151.97,80.71 205.49,44.1 24.15,-16.51 71.02,-110.73 90.96,-143.99 18.68,-31.23 16.1,-38.12 35.9,-44.98 15.29,27.56 10.25,79.61 20.2,115.06 14.63,52.08 46.82,37.1 90.74,30zm-1575.74 -12.38c-1.72,-50.11 1.8,-94.93 23.15,-158.89 45.96,-137.62 154.19,-58.37 83.21,66.29 -22.44,39.36 -57.56,87.67 -106.36,92.61zm-42.08 487.5c-44.1,-2.02 -105.96,-19.69 -119.92,-24.66 -75.62,-27.03 -83.18,-49.8 -85.96,-107.2l-0.16 -109.05c-0.28,-203.91 8.06,-382.55 18.63,-586.7 5.68,-68.13 7.52,-76.32 74.44,-80.08 227.42,-12.69 159.36,37.14 163.57,123.29 23.66,-18.09 37.76,-44.52 55.79,-71.21 13.77,-20.34 36.96,-59.07 61.33,-65.49 55.45,-14.63 142.12,11.97 177.42,52.14 38.62,43.9 102.28,365.95 -107.7,480.08 -137.59,74.76 -160.74,18.42 -196.39,-1.69 1.88,38.12 6.68,195.15 6.09,295.95 -0.47,80.56 16.92,89.56 -47.14,94.62zm2154 -836.42c0.3,-15.29 3.32,-31.83 9.44,-51.58 16.26,-52.51 66.92,-48.8 55.18,4.38 -10.98,49.86 -22.11,43.85 -64.63,47.2zm226.14 0.33c-49.36,69.59 -150.77,98.93 -222.82,67.76 0.85,17.1 2.72,30.33 5.54,41.16 24.18,92.71 83.89,52.68 136.86,5.34 15.82,-14.15 32.61,-26.12 60.45,-28.31 37.45,-2.97 125.73,101.97 51.13,185.54 -100.38,112.47 -321.4,122.39 -428.77,28.06 -64.1,-56.33 -85.79,-133.54 -89.86,-216.59 -2.14,-43.82 5.56,-86.5 20.22,-126.72 28.94,-79.5 85.37,-156.45 159.75,-200.94 35.43,-21.16 87.26,-34.55 139.84,-38.65 53.43,-4.18 107.59,1.3 145.97,18.06 105.74,46.18 76.29,188.32 21.69,265.29zm-2944.7 214.15c6.65,-15.76 4.7,-85.84 41.8,-88.72 28.94,-2.3 28.24,25.43 19.13,52.58 -14.1,41.86 -19.02,32.86 -60.93,36.15zm205.58 -264.2c39.78,19.27 66.74,51.94 69.11,100.11 8.37,171.08 -144.56,287.01 -271.37,232.18 1.32,26.35 14.74,101.36 50.99,98.51 72.89,-5.73 147.73,-145.37 204.82,-43.88 49.3,87.59 34.81,128.89 -49.95,188.95 -86.75,61.41 -261.26,70.67 -349.17,13.68 -73.79,-47.78 -116.15,-136.18 -121.35,-242.07 -5.93,-121.19 58.52,-237.62 157.36,-306.2 83.66,-58.01 215.88,-86.67 309.56,-41.27zm-1032.95 532.73c43.71,79.25 106.64,112.88 181.47,123.85 96.89,14.16 181.19,3.99 262.65,-57.14 38.79,-29.15 67.65,-64.27 66.21,-93.77 -1.2,-24.87 -29.86,-84.07 -41.58,-97.03 -55.9,-61.83 -127.5,59.11 -185.09,63.68 -57.34,4.52 -60.14,-50.39 -62.47,-97.64 -1.69,-34.97 1.52,-65.85 5.48,-93.06 13.52,-92.9 56.92,-62.4 56.54,-54.24l-3.01 79.89c95.79,51.97 150.21,47.62 196.98,-47.67 11.38,-23.15 33.54,-99.36 32.05,-129.78 -6.74,-137.56 -289.62,-112.93 -374.49,-63.68 -48.27,28.03 -96.75,80.25 -120.49,129.22 -47.42,97.95 -68.58,239.11 -14.24,337.36zm-82.85 -1071.43l-120.69 9.55c63.32,-106.01 75.93,-347.97 98.18,-469.16l57.47 -4.52 -34.95 464.13zm-288.39 472.76c21.27,-1.66 36.82,-11.2 46.29,-25.08 19.08,-27.95 18.73,-125.01 29.92,-186 63.35,-4.98 108.44,-2.79 166.92,-7.45 59.39,-4.74 118.78,-9.36 178.19,-14.07 -5.84,13.9 -8.63,59.16 -7.61,80.35 1.35,27.28 53.85,68.44 73.01,79.81 35.26,20.92 61.94,28.66 94.62,29.97 93.24,3.71 62.14,-43.49 71.86,-119.61 8.59,-67.17 13.85,-177.93 24.52,-244.99 2.52,-49.58 7.89,-89.93 -63.6,-85.98 -13.8,0.78 -33.88,2.97 -66.81,5.54 -4.8,-97.87 12.58,-244.63 20.96,-339.48l17.48 -197.7c10.14,-98.01 22.69,-111.64 -87.34,-120.34 -66.04,-5.23 -423.87,4.55 -455.73,46.43 -22.38,29.39 -6.51,111.66 -13.79,183.66 -15.37,152.57 -27.31,273.84 -79.5,420.11 -9.29,26.09 -21.3,42.48 -52.14,47.22 -88.77,13.63 -71.55,80.59 -75.26,228.18 -2.52,99.19 -14.21,111.41 108.26,189.81 15.65,10 46.32,31.49 69.75,29.61zm1575.8 -676.87c13.24,-8.84 33.57,-16.54 55.71,-16.06 42.9,0.93 35.59,63.71 32.41,96.01 -6.01,60.39 -32.86,100.85 -56.92,55.93 -18.06,-33.71 -29.36,-97.9 -31.19,-135.88zm403.37 -601.6c4.58,98.37 -11.99,193.6 -92.62,262.32 -93.16,79.45 -296.79,91.33 -300.47,196.07 35.4,-11.07 75.26,-45.9 165.9,-30.25 41.44,7.17 147.12,32.11 174.05,62.39 66.18,74.39 3.96,274.4 -54.02,347.05 -40.36,50.64 -95.79,89.81 -165.23,105.71 -66.95,15.34 -128.43,6.2 -180.94,-20.81 -114.33,-58.79 -157.34,-169.95 -168.12,-292.07 -11.06,-125.43 32.08,-286.93 77.25,-389.89 66.32,-151.41 253.22,-162.46 381.11,-223.98 15.33,-7.39 52.14,-28.55 62.44,-38.31 7.9,-7.48 16.38,-18.2 25.26,-27.73 48.57,-52.36 73.35,4.7 75.4,49.5zm284.01 729.63c-5.09,-65.26 7.52,-172.71 63.35,-218.42 12.25,-10.08 27.31,-16.58 46.21,-18.06 54.13,88.65 -33.14,228.78 -109.56,236.48zm-41.99 487.53c-44.13,-1.97 -106.15,-19.64 -120.03,-24.66 -75.57,-27.14 -83.13,-49.61 -85.96,-107.2 -4.95,-100.56 -0.96,-187.62 2.89,-288.42l15.51 -407.41c5.65,-69.04 8.31,-76.32 75.65,-80.06 226.1,-12.44 158.22,37.42 162.46,123.35 41.94,-32.08 76.61,-126.07 117.2,-136.78 55.51,-14.66 141.87,12.16 177.34,52.19 38.31,43.21 102.54,365.89 -107.73,480.11 -137.59,74.78 -160.72,18.42 -196.38,-1.72 1.86,37.95 6.63,193.49 6.1,294.32 -0.42,81.24 17.42,91.19 -47.06,96.29zm1314.76 -770.24c0.93,-14.69 0.47,-53.55 18.94,-74.22 30.11,-33.71 56.61,-0.89 45.93,33.31 -6.88,22.16 -11.12,32.48 -19.75,37.75 -13.49,8.2 -30.78,6.18 -45.12,3.17zm225.37 -0.17c-53.96,70.39 -142.99,102.43 -222,68.31 0.81,16.92 2.69,30 5.43,40.81 13.85,53.71 34.38,72.08 83.43,44.59 60.23,-33.82 120.28,-114.59 166.95,-30.85 31.8,57.03 43.66,98.12 -1.88,149.14 -41.19,46.15 -120.42,81.98 -187.76,87.28 -82.71,6.54 -144.62,3 -196.07,-25.29 -92.54,-50.88 -129.86,-149.86 -134.81,-250.49 -2.53,-51.94 8.73,-102.08 28.91,-148.4 47.48,-109.14 126.74,-188.86 245.95,-211.79 80.49,-15.51 179.84,-11.55 229.67,38.2 59.5,59.44 27.14,179.85 -17.84,238.5zm-2750.83 387.43c-66.74,5.28 -22.53,-340.11 22.1,-240.19 21.86,48.97 -0.19,238.47 -22.1,240.19zm-280.58 -74.69c3.93,80.45 27.11,166.04 96.7,208.89 13.4,8.23 21.57,15.54 39.58,21.52 56.57,18.73 127.84,22.19 193.18,17.03 90.42,-7.14 150.8,-72.44 187.73,-150.66 40.98,-86.81 66.24,-253.56 13.56,-336.91 -16.79,-26.57 -39.36,-49.67 -62.58,-68.93 -53.49,-44.49 -236.62,-82.33 -342.69,-0.61 -78.12,60.22 -130.74,202.46 -125.48,309.66zm2211.75 -77.67c-66.75,5.26 -22.55,-340.11 22.08,-240.23 21.86,49 -0.19,238.5 -22.08,240.23zm-280.6 -74.69c3.93,80.45 27.14,166.04 96.72,208.89 67.87,41.77 148.18,45.18 232.74,38.51 79.39,-6.26 135.6,-57.34 173.16,-122.68 77.34,-134.55 90.94,-329.55 -34.41,-433.82 -53.49,-44.44 -236.67,-82.28 -342.74,-0.56 -78.12,60.2 -130.74,202.46 -125.48,309.66zm1797.88 52.3c0,0 32.19,-107.81 -51.5,-129.89 -83.71,-22.05 -107.99,58.15 -124.67,158.01 -16.68,99.89 -17.48,198.47 -17.48,198.47 0,0 169.75,-20.28 266.92,-62.79 85.46,-37.37 85.07,-123.18 21.3,-156.28 -21.52,-11.16 -52.02,-12.78 -94.56,-7.52zm-207.01 -710.63c0,0 -23.01,-125.97 -110.52,-149.5 -87.53,-23.57 -193.41,7.1 -173.35,194.76 20.03,187.65 151.38,390.11 151.38,390.11 0,0 319.34,-126.46 386.76,-265.15 67.4,-138.64 4.27,-228.92 -99.47,-236.23 -103.71,-7.31 -154.79,66.01 -154.79,66.01zm-4154.34 2250.1c0,0 82.82,-351.88 32.36,-480.33 -48.26,-122.88 -211.03,-97.02 -234.08,-8.82 -6.86,26.13 -4.6,82.75 -1.8,102.5 1.63,11.83 -155.86,-86.01 -228.25,-3.4 -72.37,82.62 -34.91,239.32 120.09,301.47 154.98,62.16 311.68,88.58 311.68,88.58z"/>
 </g>
</svg>
