<svg width="100%" height="100%" viewBox="0 0 776 340" fill="none" xmlns="http://www.w3.org/2000/svg">
<path d="M56.4628 3.93378L7.8717 27.3272V55.0114L50.4816 34.733V140.379H80.3494V3.93378H56.4501H56.4628ZM114.013 72.1624C114.013 116.022 142.884 142.718 187.692 142.718C232.5 142.718 261.167 116.009 261.167 72.1624C261.167 28.3029 232.488 1.59444 187.692 1.59444C142.884 1.59444 114.013 28.3029 114.013 72.1624V72.1624ZM143.881 72.1624C143.881 42.9269 160.802 25.5758 187.692 25.5758C214.569 25.5758 231.299 42.9269 231.299 72.1624C231.299 101.398 214.569 118.749 187.692 118.749C160.815 118.749 143.881 101.398 143.881 72.1624V72.1624ZM282.676 72.1624C282.676 116.022 311.547 142.718 356.355 142.718C401.163 142.718 429.83 116.009 429.83 72.1624C429.83 28.3029 401.151 1.59444 356.355 1.59444C311.547 1.59444 282.676 28.3029 282.676 72.1624V72.1624ZM312.544 72.1624C312.544 42.9269 329.465 25.5758 356.355 25.5758C383.233 25.5758 399.962 42.9269 399.962 72.1624C399.962 101.398 383.233 118.749 356.355 118.749C329.478 118.749 312.544 101.398 312.544 72.1624V72.1624ZM464.081 37.0723C464.081 57.9262 482 71.5745 510.283 71.5745C538.553 71.5745 556.279 57.9262 556.279 37.0723C556.279 16.4186 538.553 2.77036 510.283 2.77036C482 2.77036 464.081 16.4186 464.081 37.0723V37.0723ZM490.767 140.379H510.679L643.902 3.93378H624.182L490.767 140.379ZM485.195 37.0723C485.195 25.5758 495.547 18.5578 510.283 18.5578C524.814 18.5578 535.179 25.5758 535.179 37.0723C535.179 48.769 524.827 55.5869 510.283 55.5869C495.547 55.5869 485.195 48.769 485.195 37.0723V37.0723ZM578.389 107.24C578.389 127.894 596.308 141.542 624.591 141.542C652.669 141.542 670.587 127.894 670.587 107.24C670.587 86.3861 652.669 72.7379 624.591 72.7379C596.308 72.7379 578.389 86.3861 578.389 107.24V107.24ZM599.503 107.24C599.503 95.5433 609.855 88.7254 624.591 88.7254C639.122 88.7254 649.282 95.5433 649.282 107.24C649.282 118.737 639.122 125.755 624.591 125.755C609.855 125.755 599.503 118.737 599.503 107.24Z" stroke="black" stroke-width="3" stroke-linejoin="bevel"/>
<path d="M135.525 274.772V196.61H27.5943C24.2075 237.542 22.4182 260.736 13.8553 274.772H1.90564V325.649H29.9842V298.753H125.173V325.649H153.251V274.772H135.525V274.772ZM106.053 274.772H41.5377C47.5062 261.324 49.3082 247.087 52.0943 220.579H106.066V274.772H106.053ZM164 247.675C164 281.59 192.474 301.08 235.289 301.08C277.899 301.08 306.373 281.59 306.373 247.675C306.373 213.761 277.899 194.271 235.289 194.271C192.474 194.271 164 213.761 164 247.675V247.675ZM193.471 247.675C193.471 229.749 208.808 216.288 235.289 216.288C261.77 216.288 277.106 229.736 277.106 247.675C277.106 265.615 261.77 279.063 235.289 279.063C208.808 279.063 193.471 265.615 193.471 247.675ZM401.562 200.501C374.276 200.501 355.565 210.834 347.194 227.397C351.974 190.368 370.889 185.289 397.178 182.949C408.131 182.174 414.905 181.786 424.656 180.998C435.814 180.022 445.373 178.458 452.339 175.544V152.938C442.574 155.666 434.42 156.441 421.269 157.817C408.924 158.981 395.772 159.956 382.238 162.496C341.021 169.902 324.688 191.544 324.688 233.839C324.688 283.541 355.361 301.08 395.772 301.08C440.184 301.08 467.062 281.202 467.062 250.79C467.062 220.379 440.376 200.501 401.549 200.501H401.562ZM395.785 279.05C369.7 279.05 354.172 268.129 354.172 250.79C354.172 233.439 369.7 222.531 395.785 222.531C422.075 222.531 437.807 233.452 437.807 250.79C437.807 268.141 422.075 279.05 395.785 279.05ZM567.247 194.258C545.546 194.258 527.027 201.076 517.071 217.064V196.598H489.785V337.721H519.461V281.389C529.813 294.837 547.54 301.08 567.656 301.08C602.905 301.08 628.593 281.389 628.593 247.675C628.593 213.961 602.905 194.271 567.26 194.271L567.247 194.258ZM558.684 279.05C533.392 279.05 518.055 266.378 518.055 247.663C518.055 228.948 533.392 216.276 558.684 216.276C583.772 216.276 599.313 228.948 599.313 247.663C599.313 266.378 583.785 279.05 558.684 279.05ZM712.816 194.258C682.744 194.071 655.47 202.64 652.275 228.11H680.149C683.536 218.79 695.281 214.137 712.803 214.137C734.914 214.137 744.461 222.868 744.461 234.54V236.266L703.244 238.806C665.81 241.145 644.492 249.327 644.492 270.443C644.492 287.819 659.432 301.08 692.086 301.08C718.376 301.08 736.69 291.723 746.646 277.111V298.753H774.124V240.57C774.124 209.283 752.014 194.471 712.791 194.271L712.816 194.258ZM700.074 281.189C682.348 281.189 673.989 276.123 673.989 268.88C673.989 260.235 685.735 256.532 707.052 255.169L744.486 252.629V256.132C744.486 269.455 727.961 281.177 700.074 281.177V281.189Z" stroke="black" stroke-width="3" stroke-linejoin="bevel"/>
</svg>
