<svg viewBox="0 0 776 339" fill="none" xmlns="http://www.w3.org/2000/svg"><path d="M56.463 3.964L7.872 27.358v27.684l42.61-20.279V140.41h29.867V3.964H56.45h.013zm57.55 68.229c0 43.859 28.871 70.555 73.679 70.555 44.808 0 73.475-26.708 73.475-70.555 0-43.86-28.679-70.568-73.475-70.568-44.808 0-73.679 26.708-73.679 70.568zm29.868 0c0-29.236 16.921-46.587 43.811-46.587 26.877 0 43.607 17.351 43.607 46.587 0 29.235-16.73 46.586-43.607 46.586s-43.811-17.351-43.811-46.586zm138.795 0c0 43.859 28.871 70.555 73.679 70.555 44.808 0 73.475-26.708 73.475-70.555 0-43.86-28.679-70.568-73.475-70.568-44.808 0-73.679 26.708-73.679 70.568zm29.868 0c0-29.236 16.921-46.587 43.811-46.587 26.878 0 43.607 17.351 43.607 46.587 0 29.235-16.729 46.586-43.607 46.586-26.877 0-43.811-17.351-43.811-46.586zm151.537-35.09c0 20.854 17.919 34.502 46.202 34.502 28.27 0 45.996-13.648 45.996-34.502 0-20.654-17.726-34.302-45.996-34.302-28.283 0-46.202 13.648-46.202 34.302zm26.686 103.306h19.912L643.902 3.964h-19.72L490.767 140.41zm-5.572-103.306c0-11.497 10.352-18.515 25.088-18.515 14.531 0 24.896 7.018 24.896 18.515 0 11.696-10.352 18.514-24.896 18.514-14.736 0-25.088-6.818-25.088-18.514zm93.194 70.167c0 20.654 17.919 34.302 46.202 34.302 28.078 0 45.996-13.648 45.996-34.302 0-20.853-17.918-34.502-45.996-34.502-28.283 0-46.202 13.648-46.202 34.502zm21.114 0c0-11.696 10.352-18.514 25.088-18.514 14.531 0 24.691 6.818 24.691 18.514 0 11.497-10.16 18.515-24.691 18.515-14.736 0-25.088-7.018-25.088-18.515zM135.525 274.802v-78.161H27.595c-3.387 40.932-5.177 64.125-13.74 78.161H1.905v50.878h28.08v-26.897h95.188v26.897h28.078v-50.878h-17.726zm-29.472 0H41.538c5.968-13.448 7.77-27.684 10.556-54.193h53.972v54.193h-.013zM164 247.706c0 33.914 28.474 53.404 71.289 53.404 42.61 0 71.084-19.49 71.084-53.404s-28.474-53.405-71.084-53.405c-42.815 0-71.289 19.491-71.289 53.405zm29.471 0c0-17.927 15.337-31.387 41.818-31.387 26.481 0 41.817 13.448 41.817 31.387s-15.336 31.387-41.817 31.387-41.818-13.448-41.818-31.387zm208.091-47.175c-27.286 0-45.997 10.333-54.368 26.896 4.78-37.029 23.695-42.108 49.984-44.447 10.953-.776 17.727-1.164 27.478-1.952 11.158-.975 20.717-2.539 27.683-5.454v-22.605c-9.765 2.727-17.919 3.503-31.07 4.879-12.345 1.163-25.497 2.139-39.031 4.678-41.217 7.406-57.55 29.048-57.55 71.344 0 49.701 30.673 67.24 71.084 67.24 44.412 0 71.29-19.878 71.29-50.289 0-30.412-26.686-50.29-65.513-50.29h.013zm-5.777 78.549c-26.085 0-41.613-10.921-41.613-28.259 0-17.351 15.528-28.26 41.613-28.26 26.29 0 42.022 10.921 42.022 28.26 0 17.351-15.732 28.259-42.022 28.259zm171.462-84.791c-21.701 0-40.22 6.818-50.176 22.805v-20.466h-27.286v141.124h29.676V281.42c10.352 13.448 28.079 19.69 48.195 19.69 35.249 0 60.937-19.69 60.937-53.404s-25.688-53.405-61.333-53.405l-.013-.012zm-8.563 84.791c-25.292 0-40.629-12.672-40.629-31.387 0-18.714 15.337-31.387 40.629-31.387 25.088 0 40.629 12.673 40.629 31.387 0 18.715-15.528 31.387-40.629 31.387zm154.132-84.791c-30.072-.188-57.346 8.381-60.541 33.851h27.874c3.387-9.319 15.132-13.973 32.654-13.973 22.111 0 31.658 8.732 31.658 20.403v1.727l-41.217 2.539c-37.434 2.34-58.752 10.521-58.752 31.638 0 17.376 14.94 30.636 47.594 30.636 26.29 0 44.604-9.357 54.56-23.969v21.642h27.478V240.6c0-31.287-22.11-46.099-61.333-46.299l.025-.012zm-12.742 86.931c-17.726 0-26.085-5.067-26.085-12.31 0-8.644 11.746-12.347 33.063-13.711l37.434-2.539v3.502c0 13.323-16.525 25.045-44.412 25.045v.013z" stroke="#000" stroke-width="2" stroke-linejoin="bevel"/></svg>