<?xml version="1.0" encoding="UTF-8"?>
<!DOCTYPE svg PUBLIC "-//W3C//DTD SVG 1.1//EN" "http://www.w3.org/Graphics/SVG/1.1/DTD/svg11.dtd">
<!-- Creator: CorelDRAW 2017 -->
<svg xmlns="http://www.w3.org/2000/svg" xml:space="preserve" width="100%" height="100%" version="1.1" style="shape-rendering:geometricPrecision; text-rendering:geometricPrecision; image-rendering:optimizeQuality; fill-rule:evenodd; clip-rule:evenodd"
viewBox="0 0 21075.5 9414.36"
 xmlns:xlink="http://www.w3.org/1999/xlink">
 <defs>
  <style type="text/css">
   <![CDATA[
    .str0 {stroke:#323234;stroke-width:76.2;stroke-linejoin:bevel;stroke-miterlimit:22.9256}
    .fil0 {fill:none;fill-rule:nonzero}
   ]]>
  </style>
 </defs>
 <g id="Layer_x0020_1">
  <metadata id="CorelCorpID_0Corel-Layer"/>
  <path class="fil0 str0" d="M1521.77 103.1l-1321.36 649.91 0 769.11 1158.71 -563.37 0 2935.01 812.21 0 0 -3790.66 -649.91 0 0.35 0zm1564.99 1895.5c0,1218.49 785.1,1960.15 2003.59,1960.15 1218.49,0 1998.03,-742.01 1998.03,-1960.15 0,-1218.49 -779.89,-1960.5 -1998.03,-1960.5 -1218.49,0 -2003.59,742.01 -2003.59,1960.5zm812.21 0c0,-812.21 460.15,-1294.25 1191.38,-1294.25 730.89,0 1185.82,482.04 1185.82,1294.25 0,812.21 -454.94,1294.25 -1185.82,1294.25 -730.89,0 -1191.38,-482.04 -1191.38,-1294.25zm3774.32 0c0,1218.49 785.1,1960.15 2003.59,1960.15 1218.49,0 1998.03,-742.01 1998.03,-1960.15 0,-1218.49 -779.89,-1960.5 -1998.03,-1960.5 -1218.49,0 -2003.59,742.01 -2003.59,1960.5zm812.22 0c0,-812.21 460.15,-1294.25 1191.38,-1294.25 730.89,0 1185.82,482.04 1185.82,1294.25 0,812.21 -454.94,1294.25 -1185.82,1294.25 -730.89,0 -1191.38,-482.04 -1191.38,-1294.25zm4120.82 -974.86c0,579.36 487.26,958.53 1256.37,958.53 768.77,0 1250.81,-379.17 1250.81,-958.53 0,-573.8 -482.04,-952.97 -1250.81,-952.97 -769.11,0 -1256.37,379.17 -1256.37,952.97zm725.68 2870.02l541.47 0 3622.8 -3790.66 -536.26 0 -3628.01 3790.66zm-151.53 -2870.02c0,-319.39 281.51,-514.37 682.23,-514.37 395.16,0 677.02,194.97 677.02,514.37 0,324.95 -281.51,514.37 -677.02,514.37 -400.72,0 -682.23,-189.41 -682.23,-514.37zm2534.29 1949.38c0,573.8 487.26,952.97 1256.37,952.97 763.55,0 1250.81,-379.17 1250.81,-952.97 0,-579.36 -487.26,-958.53 -1250.81,-958.53 -769.11,0 -1256.37,379.17 -1256.37,958.53zm574.14 0c0,-324.95 281.51,-514.37 682.23,-514.37 395.16,0 671.46,189.41 671.46,514.37 0,319.39 -276.3,514.37 -671.46,514.37 -400.72,0 -682.23,-194.97 -682.23,-514.37z"/>
  <path class="fil0 str0" d="M3671.67 7627.42l0 -2171.46 -2935.01 0c-92.1,1137.16 -140.76,1781.51 -373.61,2171.46l-324.95 0 0 1413.46 763.55 0 0 -747.22 2588.51 0 0 747.22 763.55 0 0 -1413.46 -482.04 0zm-801.43 0l-1754.4 0c162.3,-373.61 211.31,-769.11 287.07,-1505.56l1467.68 0 0 1505.56 -0.35 0zm1575.76 -752.78c0,942.19 774.33,1483.67 1938.6,1483.67 1158.71,0 1933.04,-541.47 1933.04,-1483.67 0,-942.19 -774.33,-1483.67 -1933.04,-1483.67 -1164.27,0 -1938.6,541.47 -1938.6,1483.67zm801.44 0c0,-498.03 417.05,-871.99 1137.16,-871.99 720.11,0 1137.16,373.61 1137.16,871.99 0,498.38 -417.05,871.99 -1137.16,871.99 -720.11,0 -1137.16,-373.61 -1137.16,-871.99zm5658.71 -1310.58c-742.01,0 -1250.81,287.07 -1478.45,747.22 129.98,-1028.73 644.35,-1169.83 1359.24,-1234.82 297.85,-21.55 482.04,-32.32 747.22,-54.22 303.41,-27.11 563.37,-70.55 752.78,-151.53l0 -628.01c-265.52,75.76 -487.26,97.31 -844.88,135.54 -335.73,32.32 -693.35,59.43 -1061.4,129.98 -1120.83,205.75 -1564.99,807 -1564.99,1982.04 0,1380.79 834.11,1868.05 1933.04,1868.05 1207.72,0 1938.6,-552.25 1938.6,-1397.13 0,-844.88 -725.67,-1397.13 -1781.51,-1397.13l0.35 0.01zm-157.09 2182.22c-709.34,0 -1131.6,-303.41 -1131.6,-785.1 0,-482.04 422.27,-785.1 1131.6,-785.1 714.9,0 1142.72,303.41 1142.72,785.1 0,482.04 -427.83,785.1 -1142.72,785.1zm4662.65 -2355.65c-590.13,0 -1093.72,189.41 -1364.46,633.57l0 -568.58 -742.01 0 0 3920.64 807 0 0 -1564.99c281.51,373.61 763.55,547.03 1310.59,547.03 958.53,0 1657.09,-547.03 1657.09,-1483.67 0,-936.63 -698.56,-1483.67 -1667.86,-1483.67l-0.35 -0.33zm-232.85 2355.65c-687.79,0 -1104.84,-352.06 -1104.84,-871.99 0,-519.93 417.05,-871.99 1104.84,-871.99 682.23,0 1104.84,352.06 1104.84,871.99 0,519.93 -422.27,871.99 -1104.84,871.99zm4191.38 -2355.65c-817.77,-5.21 -1559.43,232.85 -1646.32,940.45l757.99 0c92.1,-258.92 411.49,-388.21 887.97,-388.21 601.25,0 860.87,242.59 860.87,566.84l0 47.96 -1120.83 70.55c-1017.96,64.99 -1597.66,292.28 -1597.66,878.94 0,482.74 406.28,851.14 1294.25,851.14 714.9,0 1212.93,-259.96 1483.67,-665.89l0 601.25 747.22 0 0 -1616.43c0,-869.21 -601.25,-1280.7 -1667.86,-1286.26l0.7 -0.34zm-346.5 2415.08c-482.04,0 -709.34,-140.76 -709.34,-341.98 0,-240.15 319.39,-343.03 899.1,-380.91l1017.96 -70.55 0 97.31c0,370.13 -449.37,695.78 -1207.72,695.78l0 0.35z"/>
 </g>
</svg>
