<svg width="100%" height="100%" viewBox="0 0 217 107" fill="none" xmlns="http://www.w3.org/2000/svg">
<path d="M16.1898 1.99942L2.66107 9.25594V17.8435L14.5245 11.5532V44.3239H22.8402V1.99942H16.1862H16.1898ZM32.2128 23.1636C32.2128 36.7686 40.251 45.0496 52.7265 45.0496C65.2019 45.0496 73.1832 36.7647 73.1832 23.1636C73.1832 9.55862 65.1983 1.27377 52.7265 1.27377C40.251 1.27377 32.2128 9.55862 32.2128 23.1636V23.1636ZM40.5286 23.1636C40.5286 14.0949 45.2398 8.71267 52.7265 8.71267C60.2096 8.71267 64.8674 14.0949 64.8674 23.1636C64.8674 32.2323 60.2096 37.6145 52.7265 37.6145C45.2433 37.6145 40.5286 32.2323 40.5286 23.1636V23.1636ZM79.1718 23.1636C79.1718 36.7686 87.21 45.0496 99.6854 45.0496C112.161 45.0496 120.142 36.7647 120.142 23.1636C120.142 9.55862 112.157 1.27377 99.6854 1.27377C87.21 1.27377 79.1718 9.55862 79.1718 23.1636V23.1636ZM87.4876 23.1636C87.4876 14.0949 92.1987 8.71267 99.6854 8.71267C107.169 8.71267 111.826 14.0949 111.826 23.1636C111.826 32.2323 107.169 37.6145 99.6854 37.6145C92.2023 37.6145 87.4876 32.2323 87.4876 23.1636V23.1636ZM129.678 12.2788C129.678 18.7476 134.667 22.9812 142.542 22.9812C150.413 22.9812 155.348 18.7476 155.348 12.2788C155.348 5.87215 150.413 1.63854 142.542 1.63854C134.667 1.63854 129.678 5.87215 129.678 12.2788V12.2788ZM137.108 44.3239H142.652L179.744 1.99942H174.253L137.108 44.3239ZM135.557 12.2788C135.557 8.71267 138.439 6.53572 142.542 6.53572C146.587 6.53572 149.473 8.71267 149.473 12.2788C149.473 15.9071 146.591 18.022 142.542 18.022C138.439 18.022 135.557 15.9071 135.557 12.2788V12.2788ZM161.504 34.0445C161.504 40.4512 166.493 44.6848 174.367 44.6848C182.185 44.6848 187.174 40.4512 187.174 34.0445C187.174 27.5757 182.185 23.3421 174.367 23.3421C166.493 23.3421 161.504 27.5757 161.504 34.0445V34.0445ZM167.382 34.0445C167.382 30.4162 170.264 28.3014 174.367 28.3014C178.413 28.3014 181.242 30.4162 181.242 34.0445C181.242 37.6107 178.413 39.7876 174.367 39.7876C170.264 39.7876 167.382 37.6107 167.382 34.0445Z" stroke="black"/>
<path d="M38.2021 86.0119V61.7667H8.1522C7.20925 74.4636 6.71108 81.658 4.32702 86.0119H1V101.794H8.8176V93.4508H35.3199V101.794H43.1375V86.0119H38.2021V86.0119ZM29.9966 86.0119H12.0343C13.696 81.8404 14.1978 77.4244 14.9735 69.2017H30.0002V86.0119H29.9966ZM46.13 77.6068C46.13 88.1268 54.0579 94.1726 65.9782 94.1726C77.8416 94.1726 85.7695 88.1268 85.7695 77.6068C85.7695 67.0868 77.8416 61.041 65.9782 61.041C54.0579 61.041 46.13 67.0868 46.13 77.6068V77.6068ZM54.3355 77.6068C54.3355 72.0461 58.6054 67.8707 65.9782 67.8707C73.351 67.8707 77.621 72.0422 77.621 77.6068C77.621 83.1714 73.351 87.3429 65.9782 87.3429C58.6054 87.3429 54.3355 83.1714 54.3355 77.6068ZM112.272 62.9735C104.675 62.9735 99.4655 66.1788 97.1348 71.3165C98.4656 59.8303 103.732 58.2548 111.051 57.5292C114.101 57.2886 115.987 57.1683 118.702 56.9238C121.808 56.6211 124.47 56.1361 126.409 55.2319V48.2199C123.69 49.0658 121.42 49.3064 117.759 49.7333C114.321 50.0942 110.66 50.3968 106.892 51.1846C95.4161 53.4818 90.8686 60.1951 90.8686 73.315C90.8686 88.7321 99.4085 94.1726 110.66 94.1726C123.025 94.1726 130.508 88.0065 130.508 78.573C130.508 69.1396 123.078 62.9735 112.268 62.9735H112.272ZM110.663 87.339C103.401 87.339 99.0776 83.9514 99.0776 78.573C99.0776 73.1908 103.401 69.807 110.663 69.807C117.983 69.807 122.363 73.1947 122.363 78.573C122.363 83.9553 117.983 87.339 110.663 87.339ZM158.402 61.0371C152.36 61.0371 147.204 63.152 144.432 68.1113V61.7628H136.835V105.539H145.097V88.0647C147.979 92.2362 152.915 94.1726 158.516 94.1726C168.329 94.1726 175.482 88.0647 175.482 77.6068C175.482 67.1489 168.329 61.041 158.405 61.041L158.402 61.0371ZM156.018 87.339C148.976 87.339 144.706 83.4081 144.706 77.6029C144.706 71.7977 148.976 67.8668 156.018 67.8668C163.003 67.8668 167.329 71.7977 167.329 77.6029C167.329 83.4081 163.006 87.339 156.018 87.339ZM198.931 61.0371C190.558 60.9789 182.965 63.6371 182.075 71.5377H189.836C190.779 68.6468 194.049 67.2032 198.927 67.2032C205.083 67.2032 207.741 69.9118 207.741 73.5323V74.0678L196.266 74.8555C185.843 75.5812 179.908 78.119 179.908 84.6693C179.908 90.0593 184.068 94.1726 193.159 94.1726C200.479 94.1726 205.578 91.27 208.35 86.7376V93.4508H216V75.4027C216 65.6976 209.844 61.1031 198.924 61.041L198.931 61.0371ZM195.383 88.0026C190.448 88.0026 188.121 86.431 188.121 84.1842C188.121 81.5028 191.391 80.3542 197.326 79.9312L207.748 79.1435V80.23C207.748 84.3627 203.147 87.9987 195.383 87.9987V88.0026Z" stroke="black"/>
</svg>
