<svg viewBox="0 0 88 88" fill="none" xmlns="http://www.w3.org/2000/svg"><path fill="#000" stroke="#000" stroke-width="3" d="M1.982 2.145h84.29v84.29H1.982z"/><path d="M52.028 43.063c4.087-.59 7.29-2.908 7.29-6.827 0-4.594-4.045-7.544-9.82-7.544H30.113v29.501h19.345c6.785 0 10.915-2.823 10.915-7.796 0-4.426-3.16-6.828-8.344-7.334zM33.315 31.221H49.33c3.667 0 6.785 1.854 6.785 5.352 0 3.456-3.118 5.395-6.785 5.395H33.315V31.22zM49.12 55.665H33.315v-11.21h16.226c4.34 0 7.628 1.474 7.628 5.52 0 4.046-3.287 5.69-8.05 5.69z" fill="#fff"/></svg>