<svg width="100%" height="100%" viewBox="0 0 88 88" fill="none" xmlns="http://www.w3.org/2000/svg">
<rect x="1.98169" y="2.14502" width="84.2899" height="84.2899" fill="black" stroke="black" stroke-width="3"/>
<path d="M52.3646 43.1055C56.5791 42.4733 59.8243 40.2396 59.8243 36.278C59.8243 31.6842 55.6941 28.6919 49.6252 28.6919H29.9857V58.1934H49.5409C56.7477 58.1934 60.8779 55.3275 60.8779 50.3544C60.8779 45.9713 57.7171 43.6112 52.3646 43.1055ZM34.2002 32.0213H49.3724C52.8282 32.0213 55.6098 33.665 55.6098 36.7837C55.6098 39.9025 52.7861 41.6304 49.3724 41.6304H34.2002V32.0213ZM49.1195 54.8639H34.2002V44.8334H49.5409C53.6711 44.8334 56.6634 46.1399 56.6634 49.8065C56.6634 53.431 53.7133 54.8639 49.1195 54.8639Z" fill="white"/>
</svg>
