<svg width="100%" height="100%" viewBox="0 0 88 88" fill="none" xmlns="http://www.w3.org/2000/svg">
<rect x="2.20789" y="1.64429" width="84.2899" height="84.2899" fill="white" stroke="black" stroke-width="3"/>
<path d="M52.591 42.6047C56.8055 41.9726 60.0506 39.7389 60.0506 35.7773C60.0506 31.1835 55.9204 28.1912 49.8515 28.1912H30.212V57.6926H49.7673C56.974 57.6926 61.1042 54.8268 61.1042 49.8537C61.1042 45.4706 57.9434 43.1105 52.591 42.6047ZM34.4265 31.5206H49.5987C53.0546 31.5206 55.8361 33.1643 55.8361 36.283C55.8361 39.4017 53.0124 41.1297 49.5987 41.1297H34.4265V31.5206ZM49.3458 54.3632H34.4265V44.3327H49.7673C53.8975 44.3327 56.8897 45.6392 56.8897 49.3058C56.8897 52.9302 53.9396 54.3632 49.3458 54.3632Z" fill="black"/>
</svg>
